# xmcd
#
# Track frame offsets:
#	150
#	19715
#	40154
#	47488
#	76197
#	107211
#	134276
#	151398
#	168520
#	180670
#	196217
#	225274
#	230831
#
# Disc length: 3295 seconds
#
# Revision: 1
# Processed by: cddbd v1.5PL3 Copyright (c) Steve Scherf et al.
# Submitted via: audiograbber 1.81.02
#
DISCID=9a0cdd0d
DTITLE=Dj Adolf - Dj Adolf
DYEAR=1900
DGENRE=
TTITLE0=Dj  Adolf -Hitler-Wer Deutschland liebt
TTITLE1=DJ Adolf - Bericht der wahrheit(1)
TTITLE2=DJ Adolf - Bericht der Wahrheit
TTITLE3=DJ Adolf - Es Geht Los
TTITLE4=DJ Adolf - Fuhrer Mix
TTITLE5=DJ Adolf - Hitler mit jugend
TTITLE6=Dj Adolf - Juden beseitigen
TTITLE7=DJ Adolf - Kunst Und Kultur
TTITLE8=Dj Adolf - Sturmgesang(1)
TTITLE9=DJ Adolf - Sturmgesang
TTITLE10=DJ Adolf - Wochenschau Mix
TTITLE11=DJ Adolf- Hitler's Speech (1)
TTITLE12=DJ Adolf- Nazi Techno  (Swastica Remix)
EXTD=
EXTT0=
EXTT1=
EXTT2=
EXTT3=
EXTT4=
EXTT5=
EXTT6=
EXTT7=
EXTT8=
EXTT9=
EXTT10=
EXTT11=
EXTT12=
PLAYORDER=
